<svg id="logo-single" xmlns="http://www.w3.org/2000/svg" width="177" height="36.532" viewBox="0 0 177 36.532">
  <g id="Group_68" data-name="Group 68" transform="translate(96.761)">
    <path id="Path_1249" data-name="Path 1249" d="M348.319,33.561a7.7,7.7,0,0,0,4.145-1.086V45.338c0,2.2,2.087,2.773,4.688,2.773h0V25.9c-5.574,6.031-12.292,5.746-17.952,0V45.367c0,2.03,2.173,2.773,4.888,2.773h0V32.475a7.539,7.539,0,0,0,4.231,1.086" transform="translate(-339 -18.496)" fill="#fff"/>
    <path id="Path_1250" data-name="Path 1250" d="M338.5,0h3.373A1.58,1.58,0,0,1,343.5,1.2v3h-3.344c-.972,0-1.658-.6-1.658-1.143Z" transform="translate(-338.5)" fill="#fff"/>
    <path id="Path_1251" data-name="Path 1251" d="M389.5,3.03c0,.572-.686,1.143-1.658,1.143H384.5V1.2A1.608,1.608,0,0,1,386.129,0H389.5Z" transform="translate(-371.351)" fill="#fff"/>
    <path id="Path_1252" data-name="Path 1252" d="M352.364,32.475a8.123,8.123,0,0,1-4.145,1.086,7.636,7.636,0,0,1-4.231-1.086c-1.143-.6-4.488-4.8-4.888-6.575a24.217,24.217,0,0,0,13.264,6.575" transform="translate(-338.928 -18.496)" fill="#fff" opacity="0.65"/>
    <path id="Path_1253" data-name="Path 1253" d="M356.2,32.475a7.021,7.021,0,0,0,3.945,1.086,8.524,8.524,0,0,0,4.431-1.086c1.143-.6,4.288-4.8,4.688-6.575A22.293,22.293,0,0,1,356.2,32.475" transform="translate(-351.14 -18.496)" fill="#fff" opacity="0.4"/>
  </g>
  <path id="Path_1254" data-name="Path 1254" d="M0,27.3H6.575c5.031,0,9.49,1.258,9.49,7.2v.543c0,5.8-4.459,7.318-9.49,7.318H5.117v6.86S0,49.225,0,46.938Zm5.117,3.63v7.8H6.575c2.573,0,4.374-.457,4.374-3.945,0-3.287-1.8-3.859-4.374-3.859Z" transform="translate(0 -19.496)" fill="#fff"/>
  <path id="Path_1255" data-name="Path 1255" d="M65.5,32.689c.429,0,5,.086,5,2.287V48.782s-5,0-5-2.287Zm0-5.889h3.373A1.58,1.58,0,0,1,70.5,28v3H67.158c-.972,0-1.658-.6-1.658-1.143Z" transform="translate(-46.777 -19.139)" fill="#fff"/>
  <path id="Path_1256" data-name="Path 1256" d="M104.248,52.3c0-1.4-.572-2.144-2.258-2.144a13.667,13.667,0,0,0-2.287.257V62.822s-5,0-5-2.287V46.5a7.4,7.4,0,0,0,3.259.715c1.458,0,2.859-.629,4.431-.629,3.344,0,6.832,1.143,6.832,5.26V62.822s-5-.057-5-2.287V52.3Z" transform="translate(-67.63 -33.208)" fill="#fff"/>
  <path id="Path_1257" data-name="Path 1257" d="M153.761,50.64c0,2.687-1.515,5.031-4.088,5.031A5.863,5.863,0,0,1,145.5,53.9c2.43,0,3.259-2.716,3.259-4.2V32.689s4.974,0,4.974,2.287V50.64ZM148.9,26.8h3.373A1.58,1.58,0,0,1,153.9,28v3H150.56c-.972,0-1.658-.6-1.658-1.143Z" transform="translate(-103.908 -19.139)" fill="#fff"/>
  <path id="Path_1258" data-name="Path 1258" d="M185.5,53.861a5.446,5.446,0,0,1-1.372-3.459c0-3,4.231-3.6,6.289-3.6,4.859,0,7.4,1.887,7.4,5.317V63.179a5.166,5.166,0,0,0-2.573-.543c-1.572,0-3.23.543-5,.543-3.344,0-6.546-1.143-6.546-4.888,0-5.431,7.747-4.431,9.09-6.432,0-.715-.543-1.544-2.458-1.544C188.074,50.345,185.5,51.031,185.5,53.861Zm7.432,1.6c-.8,1.258-4.2.772-4.2,2.687,0,1.4,1,1.687,2.03,1.687a9.282,9.282,0,0,0,2.172-.314V55.461Z" transform="translate(-131.189 -33.422)" fill="#fff"/>
  <path id="Path_1259" data-name="Path 1259" d="M253.648,52.3c0-1.229-.572-2.144-2.258-2.144a15.3,15.3,0,0,0-2.287.229V62.822s-5,0-5-2.287V46.5a7.327,7.327,0,0,0,3.459.686c1.4,0,2.744-.6,4.259-.6a9.409,9.409,0,0,1,4.774,1.229,9.623,9.623,0,0,1,5.117-1.229c3.659,0,6.517,1.944,6.517,5.6V62.851s-5-.057-5-2.287V52.732c0-1.944-.972-2.63-2.258-2.63a2.057,2.057,0,0,0-2.287,1.8v10.92s-5-.114-5-2.287V52.3Z" transform="translate(-174.323 -33.208)" fill="#fff"/>
  <path id="Path_1260" data-name="Path 1260" d="M427.293,57.605c0,3.516-2.458,5.6-7.718,5.6-5.288,0-7.775-2.087-7.775-5.6V52.4c0-3.487,2.458-5.6,7.775-5.6,5.231,0,7.718,2.115,7.718,5.6Zm-5-4.745c0-1.629-.486-2.516-2.716-2.516-2.287,0-2.773.886-2.773,2.516v4.288c0,1.629.486,2.573,2.773,2.573,2.23,0,2.716-.915,2.716-2.573Z" transform="translate(-294.086 -33.422)" fill="#fff"/>
  <path id="Path_1261" data-name="Path 1261" d="M489.95,24.973V45.754a4.889,4.889,0,0,0-2.658-.515c-1.858,0-3.545.515-4.6.515-4.6,0-7.289-2-7.289-5.546V34.892c0-3.43,3.03-5.517,6.546-5.517a6.733,6.733,0,0,1,3.2.915,9.622,9.622,0,0,1-.2-1.544V22.4C485.462,22.4,489.95,22.429,489.95,24.973Zm-5,10.062a2.421,2.421,0,0,0-2.63-2.144c-1.143,0-1.944.743-1.944,2.43V39.78c0,1.658.629,2.6,2.658,2.6a14.957,14.957,0,0,0,1.915-.172Z" transform="translate(-339.506 -15.997)" fill="#fff"/>
  <path id="Path_1262" data-name="Path 1262" d="M537.4,53.861a5.446,5.446,0,0,1-1.372-3.459c0-3,4.231-3.6,6.289-3.6,4.859,0,7.4,1.887,7.4,5.317V63.179a5.166,5.166,0,0,0-2.573-.543c-1.572,0-3.23.543-5,.543-3.344,0-6.546-1.143-6.546-4.888,0-5.431,7.747-4.431,9.09-6.432,0-.715-.543-1.544-2.458-1.544C539.974,50.345,537.4,51.031,537.4,53.861Zm7.4,1.6c-.8,1.258-4.2.772-4.2,2.687,0,1.4,1,1.687,2.03,1.687a9.281,9.281,0,0,0,2.172-.314V55.461Z" transform="translate(-382.497 -33.422)" fill="#fff"/>
  <path id="Path_1263" data-name="Path 1263" d="M595.329,22.2c.315,0,5,.029,5,2.287V39.523c0,1.629.029,4.431,1.8,4.574a2.872,2.872,0,0,1-2.716,1.4c-2.83,0-4.116-2.344-4.116-5.031V22.2Z" transform="translate(-425.132 -15.854)" fill="#fff"/>
</svg>
